# xmcd CD database file
#
# Track frame offsets:
#	150
#	13178
#	28379
#	58905
#	67575
#	83236
#	103484
#	121610
#	134884
#	156641
#	169742
#	179176
#	197740
#	218842
#	232293
#	250481
#	276121
#	290002
#
# Disc length: 4088 seconds
#
# Revision: 0
# Processed by: cddbd v1.4PL0 Copyright (c) Steve Scherf et al.
# Submitted via: CDex 1.50Beta7
#
DISCID=290ff612
DTITLE=Various Artist - Jackson St Jubilee - Disc 2 (Gravel)
DYEAR=1900
DGENRE=Country
TTITLE0=Gentle Ben Corbett/I Don't Think She Loves Me Any More
TTITLE1=KAz Dalla Rosa and The Bleeding Boleros/Ay! Mi Querido
TTITLE2=Sean Kelly/Band's Theme
TTITLE3=Oliver Jao-Smith/Where Do We Go
TTITLE4=Woodward and Rough/Jackson Stomp
TTITLE5=Headbelly Buzzards/Old Car Died
TTITLE6=Ofays/Johnny Guitar
TTITLE7=Lois/A Place Called Forget
TTITLE8=The Maryhillbillies/Battlefield
TTITLE9=The Red Hot Poker Dots/Yodelling Punk
TTITLE10=Oliver Laurie/Liquor Up
TTITLE11=The T-Bones/5 Car Pile-up
TTITLE12=Shonky Tonk/Yabba Dabba Doo
TTITLE13=The Dice Age/This is Where I Come to Drink
TTITLE14=Spencer P Jones/Albino Faye
TTITLE15=The Drones/Country of Love
TTITLE16=Lizzt Ray and Alex Burns/Lay My Burden Down
TTITLE17=Slowhand/You Show Me Yours
EXTD=
EXTT0=
EXTT1=
EXTT2=
EXTT3=
EXTT4=
EXTT5=
EXTT6=
EXTT7=
EXTT8=
EXTT9=
EXTT10=
EXTT11=
EXTT12=
EXTT13=
EXTT14=
EXTT15=
EXTT16=
EXTT17=
PLAYORDER=
